Coordinates
version=1
nRows=9
nColumns=60
inDegrees=yes

Units are S.I. units (second, meters, Newtons, ...)
If the header above contains a line with 'inDegrees', this indicates whether rotational values are in degrees (yes) or radians (no).

endheader
time	pelvis_tilt	pelvis_list	pelvis_rotation	pelvis_tx	pelvis_ty	pelvis_tz	hip_flexion_r	hip_adduction_r	hip_rotation_r	knee_angle_r_beta	knee_angle_r	ankle_angle_r	subtalar_angle_r	mtp_angle_r	hip_flexion_l	hip_adduction_l	hip_rotation_l	knee_angle_l_beta	knee_angle_l	ankle_angle_l	subtalar_angle_l	mtp_angle_l	L5_S1_Flex_Ext	L5_S1_Lat_Bending	L5_S1_axial_rotation	L4_L5_Flex_Ext	L4_L5_Lat_Bending	L4_L5_axial_rotation	L3_L4_Flex_Ext	L3_L4_Lat_Bending	L3_L4_axial_rotation	L2_L3_Flex_Ext	L2_L3_Lat_Bending	L2_L3_axial_rotation	L1_L2_Flex_Ext	L1_L2_Lat_Bending	L1_L2_axial_rotation	L1_T12_Flex_Ext	L1_T12_Lat_Bending	L1_T12_axial_rotation	Abs_r3	Abs_r2	Abs_r1	Abs_t1	Abs_t2	arm_flex_r	arm_add_r	arm_rot_r	elbow_flex_r	pro_sup_r	wrist_flex_r	wrist_dev_r	arm_flex_l	arm_add_l	arm_rot_l	elbow_flex_l	pro_sup_l	wrist_flex_l	wrist_dev_l
     32.93000000	      0.94043245	      9.95265156	     91.27974114	      0.39813986	      0.94221068	      0.30154074	     -1.16573208	     -4.31757832	      0.54293201	      0.19638837	    -11.25222464	      6.55985374	      0.00000000	      0.00000000	      0.34701889	     -6.33663818	     -1.47849484	      0.22106547	    -12.66611865	      8.44994942	      0.00000000	      0.00000000	     -7.19650212	      0.09594201	     -0.25063023	    -13.36462410	      0.12760287	     -0.26629462	    -11.82313334	      0.23327340	     -0.26629462	     -8.22488228	      0.23327340	     -0.21930145	     -6.68267187	      0.19564494	     -0.20363706	     -4.11208131	      0.14861417	     -0.18797268	    -51.40389503	      1.08531518	     -1.39393017	      0.00000000	      0.00000000	      9.39621050	    -24.29853527	     -0.76080566	     92.61679669	     72.24136137	      9.91012383	     16.15730210	     13.89005609	    -25.94809372	      7.32265144	     92.71108998	     66.81232071	      1.79821646	     18.80065816
     32.94000000	      0.90623703	      9.72858124	     91.31759396	      0.39802285	      0.94183633	      0.30401795	     -0.70898499	     -4.35988010	      0.68097203	      0.19797100	    -11.34290253	      6.33745982	      0.00000000	      0.00000000	      0.79775879	     -6.27651169	     -1.26758806	      0.22204510	    -12.72224709	      8.05118105	      0.00000000	      0.00000000	     -7.27426206	      0.09860337	     -0.26696527	    -13.50903208	      0.13114249	     -0.28365060	    -11.95088515	      0.23974424	     -0.28365060	     -8.31375411	      0.23974424	     -0.23359461	     -6.75487975	      0.20107200	     -0.21690928	     -4.15651334	      0.15273662	     -0.20022395	    -51.95932650	      1.11542107	     -1.48478076	      0.00000000	      0.00000000	      9.57895168	    -24.38966208	     -0.48428989	     92.36901091	     72.38138684	      9.99176238	     16.02868216	     14.08995995	    -26.16671057	      7.61902392	     92.35854083	     66.85757188	      1.90968803	     18.79113451
     32.95000000	      0.87217783	      9.33179278	     91.33938483	      0.39794022	      0.94118976	      0.30641366	     -0.04446380	     -4.41020288	      0.74343326	      0.20017181	    -11.46900011	      6.29794952	      0.00000000	      0.00000000	      1.43043568	     -6.20897669	     -1.15256016	      0.22298528	    -12.77611552	      7.88744617	      0.00000000	      0.00000000	     -7.32070730	      0.10219111	     -0.25966472	    -13.59528553	      0.13591418	     -0.27589377	    -12.02719003	      0.24846746	     -0.27589377	     -8.36683637	      0.24846746	     -0.22720663	     -6.79800880	      0.20838811	     -0.21097759	     -4.18305215	      0.15829403	     -0.19474854	    -52.29108018	      1.15600626	     -1.44417728	      0.00000000	      0.00000000	      9.58371706	    -24.40334460	     -0.50946580	     91.91602549	     74.09684291	     11.17090736	     13.89706814	     14.35770196	    -26.26616757	      7.94224416	     91.74999491	     67.28084996	      3.51266669	     17.98331413
     32.96000000	      0.86001196	      9.13287664	     91.33770577	      0.39789311	      0.94076601	      0.30869473	      0.31998327	     -4.42877300	      0.77258858	      0.19936103	    -11.42254561	      6.28891652	      0.00000000	      0.00000000	      1.78183626	     -6.17484808	     -1.13676217	      0.22190210	    -12.71405402	      7.86169863	      0.00000000	      0.00000000	     -7.41072981	      0.10476087	     -0.26394973	    -13.76246634	      0.13933195	     -0.28044659	    -12.17508801	      0.25471557	     -0.28044659	     -8.46972310	      0.25471557	     -0.23095601	     -6.88160370	      0.21362836	     -0.21445916	     -4.23449102	      0.16227458	     -0.19796230	    -52.93410198	      1.18507589	     -1.46800921	      0.00000000	      0.00000000	      9.74663430	    -24.40166426	     -0.48538279	     91.81157512	     74.09638280	     11.18216589	     13.89713918	     14.49786537	    -26.31830425	      7.96145822	     91.57112205	     67.27390082	      3.52241705	     17.98547008
     32.97000000	      0.80864707	      8.93101062	     91.34561763	      0.39791391	      0.94040326	      0.31116206	      0.83744275	     -4.48459354	      0.98619788	      0.20389822	    -11.68250743	      6.08873883	      0.00000000	      0.00000000	      2.24649926	     -6.10694310	     -0.94612375	      0.22463240	    -12.87048844	      7.54459557	      0.00000000	      0.00000000	     -7.49255657	      0.10259700	     -0.27899070	    -13.91442681	      0.13645401	     -0.29642762	    -12.30952120	      0.24945435	     -0.29642762	     -8.56324291	      0.24945435	     -0.24411686	     -6.95758804	      0.20921580	     -0.22667994	     -4.28124683	      0.15892275	     -0.20924303	    -53.51858236	      1.16059780	     -1.55166258	      0.00000000	      0.00000000	     10.13929290	    -24.41544095	     -0.20010610	     91.45646451	     74.13243944	     11.26530815	     13.90157983	     14.87206758	    -26.51642472	      8.30521481	     91.04201243	     67.24703115	      3.60264345	     17.98129290
     32.98000000	      0.74516732	      8.59296698	     91.31037190	      0.39805789	      0.93979190	      0.31357482	      1.49885043	     -4.55009760	      1.09336765	      0.20753990	    -11.89116031	      6.01189640	      0.00000000	      0.00000000	      2.81728158	     -6.02529726	     -0.91640831	      0.22611858	    -12.95564034	      7.33772828	      0.00000000	      0.00000000	     -7.54861594	      0.09686603	     -0.27907972	    -14.01853466	      0.12883182	     -0.29652220	    -12.40162112	      0.23552007	     -0.29652220	     -8.62731315	      0.23552007	     -0.24419476	     -7.00964476	      0.19752921	     -0.22675227	     -4.31327915	      0.15004549	     -0.20930979	    -53.91900877	      1.09576794	     -1.55215769	      0.00000000	      0.00000000	     10.55445963	    -24.44381375	      0.12612549	     90.95492648	     74.20579247	     11.40262803	     13.91111595	     15.31215075	    -26.70002446	      8.73698060	     90.48030674	     67.19237807	      3.73140637	     17.94112900
     32.99000000	      0.69498209	      8.28532450	     91.25430391	      0.39824068	      0.93922054	      0.31594774	      2.10634262	     -4.60758344	      1.24265108	      0.21071414	    -12.07303111	      5.95450330	      0.00000000	      0.00000000	      3.35284889	     -5.97039680	     -0.90778384	      0.22763314	    -13.04241830	      7.19366518	      0.00000000	      0.00000000	     -7.61344797	      0.09065996	     -0.27526689	    -14.13893422	      0.12057775	     -0.29247107	    -12.50813367	      0.22043063	     -0.29247107	     -8.70140968	      0.22043063	     -0.24085853	     -7.06984778	      0.18487380	     -0.22365435	     -4.35032417	      0.14043228	     -0.20645016	    -54.38209749	      1.02556363	     -1.53095184	      0.00000000	      0.00000000	     10.99626210	    -24.46181904	      0.38188079	     90.49305980	     74.29299374	     11.57248738	     13.92905322	     15.77891449	    -26.84170232	      9.07398000	     89.93147704	     67.11900146	      3.87459425	     17.87263936
     33.00000000	      0.67888744	      8.05724675	     91.21768143	      0.39843463	      0.93872065	      0.31826236	      2.52479096	     -4.61924917	      1.28787511	      0.21023995	    -12.04586210	      5.93506890	      0.00000000	      0.00000000	      3.73745309	     -5.95714328	     -0.89053141	      0.22697785	    -13.00487297	      7.16756215	      0.00000000	      0.00000000	     -7.70878043	      0.08941725	     -0.27190440	    -14.31597614	      0.11892494	     -0.28889843	    -12.66475537	      0.21740910	     -0.28889843	     -8.81036515	      0.21740910	     -0.23791635	     -7.15837351	      0.18233966	     -0.22092233	     -4.40479714	      0.13850732	     -0.20392830	    -55.06304774	      1.01150582	     -1.51225071	      0.00000000	      0.00000000	     11.38470573	    -24.43861420	      0.41698118	     90.37590966	     74.30417964	     11.59899758	     13.93312744	     16.13476104	    -26.87677564	      9.08161167	     89.71706500	     67.10560615	      3.89489424	     17.86079607
     33.01000000	      0.62575499	      7.87910450	     91.13648960	      0.39866902	      0.93835470	      0.32071372	      3.05667741	     -4.66895625	      1.56671655	      0.21586446	    -12.36812248	      5.68892767	      0.00000000	      0.00000000	      4.20075420	     -5.89886426	     -0.84661897	      0.23105209	    -13.23830933	      6.88726418	      0.00000000	      0.00000000	     -7.78931789	      0.08122950	     -0.26556451	    -14.46554225	      0.10803523	     -0.28216229	    -12.79707036	      0.19750140	     -0.28216229	     -8.90241142	      0.19750140	     -0.23236895	     -7.23316059	      0.16564319	     -0.21577116	     -4.45081624	      0.12582449	     -0.19917338	    -55.63831875	      0.91888434	     -1.47699014	      0.00000000	      0.00000000	     12.13194106	    -24.50290410	      0.91293959	     89.64097745	     74.36327405	     11.74571764	     14.02696172	     16.86949260	    -27.02796216	      9.56390570	     88.88499038	     67.05452129	      4.00914116	     17.84439063
